# xmcd CD database file
# 
# Track frame offsets:
# 	150
# 	17354
# 	34989
# 	52017
# 	65172
# 	90819
# 	105593
# 	116926
# 	135601
# 	152421
# 	169281
# 	187073
# 	201893
# 	230055
# 
# Disc length: 3462 seconds
# 
# Submitted via: Nero 6, 3, 1, 20
# 
# Revision: 0
# Processed by: cddbd v1.5.1PL0 Copyright (c) Steve Scherf et al.
#
DISCID=c10d840e
DTITLE=The Kyla Brox Band - Coming Home
DYEAR=1900
DGENRE=
TTITLE0=She Knows
TTITLE1=Coming Home
TTITLE2=Do I Move You?
TTITLE3=It's On
TTITLE4=Working on Your Love
TTITLE5=Too Young to Care
TTITLE6=Guilty
TTITLE7=Won't Fit There
TTITLE8=Stargazing
TTITLE9=Just for Then
TTITLE10=Things I'd Change
TTITLE11=Keep on Criticising
TTITLE12=It's Understood
TTITLE13=Don't Change Horses
EXTD=Recorded at Brothel Studios, Oldham
EXTT0=Recorded at Brothel Studios, Oldham
EXTT1=Recorded at Brothel Studios, Oldham
EXTT2=Recorded at Brothel Studios, Oldham
EXTT3=Recorded at Brothel Studios, Oldham
EXTT4=Recorded at Brothel Studios, Oldham
EXTT5=Recorded at Brothel Studios, Oldham
EXTT6=Recorded at Brothel Studios, Oldham
EXTT7=Recorded at Brothel Studios, Oldham
EXTT8=Recorded at Brothel Studios, Oldham
EXTT9=Recorded at Brothel Studios, Oldham
EXTT10=Recorded at Brothel Studios, Oldham
EXTT11=Recorded at Brothel Studios, Oldham
EXTT12=Recorded at Brothel Studios, Oldham
EXTT13=Recorded at Brothel Studios, Oldham
PLAYORDER=
